<svg width="100%" height="100%" viewBox="0 0 16 13" fill="none" xmlns="http://www.w3.org/2000/svg">
<path d="M14.9592 11.5636H13.8166V1.04063C13.8166 0.84739 13.6584 0.671714 13.4651 0.654147L7.76963 0.00414661C7.54111 -0.0309885 7.33017 0.162255 7.33017 0.390633V0.636579H5.02738C4.81644 0.636579 4.62308 0.812255 4.62308 1.04063V5.90685C4.65823 5.87171 5.37895 5.90685 5.41411 5.88928V1.44469H7.31259V11.5812H5.41411V7.10144C5.18559 7.10144 4.8516 7.10144 4.62308 7.10144V11.5636H3.77931C3.51563 11.5636 3.375 11.7744 3.375 11.9501C3.375 12.1258 3.51563 12.3541 3.77931 12.3541H7.31259V12.6001C7.31259 12.8109 7.48838 12.9866 7.7169 12.9866C7.73447 12.9866 7.75205 12.9866 7.76963 12.9866L13.4475 12.3541H14.9592C15.2229 12.3541 15.346 12.1433 15.346 11.9501C15.3636 11.7744 15.2229 11.5636 14.9592 11.5636ZM13.0256 11.6163L8.10362 12.1785V0.84739L13.0256 1.40955V11.6163Z" fill="#FFF"/>
<path d="M8.87721 6.96039C9.12331 6.96039 9.33425 6.74958 9.33425 6.50363C9.33425 6.31039 9.22878 6.15228 9.05299 6.08201C8.87721 6.01174 8.68384 6.04688 8.56079 6.18742C8.43774 6.32796 8.38501 6.50363 8.45532 6.67931C8.52564 6.85498 8.68384 6.96039 8.87721 6.96039Z" fill="#FFF"/>
<path d="M0 6.50366C0 6.29285 0.175785 6.09961 0.404306 6.09961H6.27553C6.48648 6.09961 6.67984 6.27528 6.67984 6.50366C6.67984 6.71447 6.50406 6.90772 6.27553 6.90772H0.404306C0.175785 6.90772 0 6.71447 0 6.50366Z" fill="#FFF"/>
<path d="M2.84772 3.48318L0.12305 6.22372C-0.0351572 6.38183 -0.0351572 6.62778 0.12305 6.78589L2.8653 9.52643C3.02351 9.68453 3.26961 9.68453 3.42781 9.52643C3.58602 9.36832 3.58602 9.12237 3.42781 8.96426L0.966819 6.50481L3.42781 4.04535C3.58602 3.88724 3.58602 3.64129 3.42781 3.48318C3.26961 3.32508 3.00593 3.34264 2.84772 3.48318Z" fill="#FFF"/>
</svg>
